<?xml version="1.0" encoding="UTF-8" standalone="no"?>
<svg
   xmlns:dc="http://purl.org/dc/elements/1.1/"
   xmlns:cc="http://creativecommons.org/ns#"
   xmlns:rdf="http://www.w3.org/1999/02/22-rdf-syntax-ns#"
   xmlns:svg="http://www.w3.org/2000/svg"
   xmlns="http://www.w3.org/2000/svg"
   xmlns:sodipodi="http://sodipodi.sourceforge.net/DTD/sodipodi-0.dtd"
   xmlns:inkscape="http://www.inkscape.org/namespaces/inkscape"
   inkscape:export-ydpi="96.000008"
   inkscape:export-xdpi="96.000008"
   inkscape:export-filename="/media/johannes/dev/home/johannes/ursamajor-rEFInd/icons/os_linuxmint_inverse.png"
   sodipodi:docname="os_linuxmint_inverse.svg"
   inkscape:version="1.0rc1 (09960d6f05, 2020-04-09)"
   id="svg8"
   version="1.1"
   viewBox="0 0 33.866665 33.866666"
   height="127.99999"
   width="128">
  <defs
     id="defs2" />
  <sodipodi:namedview
     fit-margin-bottom="16"
     fit-margin-right="16"
     fit-margin-top="16"
     fit-margin-left="16"
     inkscape:document-rotation="0"
     inkscape:window-maximized="1"
     inkscape:window-y="30"
     inkscape:window-x="0"
     inkscape:window-height="1020"
     inkscape:window-width="1920"
     units="px"
     inkscape:pagecheckerboard="true"
     showgrid="false"
     inkscape:current-layer="layer1-7-0"
     inkscape:document-units="px"
     inkscape:cy="73.68317"
     inkscape:cx="85.428409"
     inkscape:zoom="5.6"
     inkscape:pageshadow="2"
     inkscape:pageopacity="0.0"
     borderopacity="1.0"
     bordercolor="#666666"
     pagecolor="#ffffff"
     id="base" />
  <metadata
     id="metadata5">
    <rdf:RDF>
      <cc:Work
         rdf:about="">
        <dc:format>image/svg+xml</dc:format>
        <dc:type
           rdf:resource="http://purl.org/dc/dcmitype/StillImage" />
        <dc:title />
      </cc:Work>
    </rdf:RDF>
  </metadata>
  <g
     transform="translate(4.2333336,-267.36665)"
     id="layer1"
     inkscape:groupmode="layer"
     inkscape:label="Calque 1">
    <g
       style="opacity:1;fill:#87cf3e;fill-opacity:1"
       inkscape:label="Calque 1"
       id="layer1-7-0"
       transform="matrix(0.27272921,0,0,0.27272921,4.1688906e-5,215.99968)">
      <circle
         style="fill:#ffffff;stroke-width:0.970132;fill-opacity:1"
         id="path149"
         cx="45.172798"
         cy="248.71417"
         r="38.805279" />
      <path
         inkscape:connector-curvature="0"
         id="path1374-3"
         transform="matrix(1.118055,0,0,1.118055,-247.73887,-122.26071)"
         d="m 263.23047,291.69141 a 41.649708,41.649708 0 0 0 -41.65039,41.65039 41.649708,41.649708 0 0 0 41.65039,41.64843 41.649708,41.649708 0 0 0 41.64844,-41.64843 41.649708,41.649708 0 0 0 -41.64844,-41.65039 z m -26.50586,17.03906 h 7.57422 v 34.07617 c 0,4.22712 3.34514,7.57422 7.57226,7.57422 h 22.71875 c 4.22712,0 7.57227,-3.3471 7.57227,-7.57422 V 323.875 c 0,-2.13599 -1.65113,-3.78516 -3.78711,-3.78516 -2.13598,0 -3.78516,1.64917 -3.78516,3.78516 v 18.93164 h -7.57422 V 323.875 c 10e-6,-2.13599 -1.64917,-3.78516 -3.78515,-3.78516 -2.13599,0 -3.78711,1.64917 -3.78711,3.78516 v 18.93164 h -7.57227 V 323.875 c 0,-6.22856 5.13082,-11.35938 11.35938,-11.35938 2.90978,10e-6 5.55293,1.15026 7.57226,2.97852 2.01934,-1.82826 4.66249,-2.97852 7.57227,-2.97852 6.22856,10e-6 11.35938,5.13082 11.35938,11.35938 v 18.93164 c -10e-6,8.3197 -6.82484,15.14648 -15.14454,15.14648 h -22.71875 c -8.31969,0 -15.14648,-6.82678 -15.14648,-15.14648 z"
         style="opacity:1;fill:#a2bd8b;fill-opacity:1;stroke:none;stroke-width:5.47889;stroke-miterlimit:4;stroke-dasharray:none;stroke-opacity:1" />
    </g>
  </g>
</svg>
