<?xml version="1.0" encoding="UTF-8" standalone="no"?>
<svg
   xmlns:dc="http://purl.org/dc/elements/1.1/"
   xmlns:cc="http://creativecommons.org/ns#"
   xmlns:rdf="http://www.w3.org/1999/02/22-rdf-syntax-ns#"
   xmlns:svg="http://www.w3.org/2000/svg"
   xmlns="http://www.w3.org/2000/svg"
   xmlns:sodipodi="http://sodipodi.sourceforge.net/DTD/sodipodi-0.dtd"
   xmlns:inkscape="http://www.inkscape.org/namespaces/inkscape"
   inkscape:export-ydpi="96.000008"
   inkscape:export-xdpi="96.000008"
   inkscape:export-filename="/media/johannes/home/Bilder/distributors/os_popos.png"
   id="Layer_1"
   data-name="Layer 1"
   width="128"
   height="128"
   viewBox="0 0 128 128"
   version="1.1"
   sodipodi:docname="os_popos.svg"
   inkscape:version="1.0rc1 (09960d6f05, 2020-04-09)">
  <metadata
     id="metadata25">
    <rdf:RDF>
      <cc:Work
         rdf:about="">
        <dc:format>image/svg+xml</dc:format>
        <dc:type
           rdf:resource="http://purl.org/dc/dcmitype/StillImage" />
        <dc:title>Pop_icon</dc:title>
      </cc:Work>
    </rdf:RDF>
  </metadata>
  <defs
     id="defs23" />
  <sodipodi:namedview
     pagecolor="#ffffff"
     bordercolor="#666666"
     inkscape:document-rotation="0"
     borderopacity="1"
     objecttolerance="10"
     gridtolerance="10"
     guidetolerance="10"
     inkscape:pageopacity="0"
     inkscape:pageshadow="2"
     inkscape:window-width="1920"
     inkscape:window-height="1020"
     id="namedview21"
     showgrid="false"
     fit-margin-top="16"
     fit-margin-left="16"
     fit-margin-right="16"
     fit-margin-bottom="16"
     inkscape:zoom="4.249208"
     inkscape:cx="51.059578"
     inkscape:cy="64.767106"
     inkscape:window-x="0"
     inkscape:window-y="30"
     inkscape:window-maximized="1"
     inkscape:current-layer="Layer_1" />
  <title
     id="title2">Pop_icon</title>
  <g
     id="g1538"
     transform="matrix(0.48,0,0,0.48,13.6,13.6)">
    <circle
       id="circle4"
       style="fill:#9ed2e5;fill-opacity:1;stroke-width:0.211416"
       r="100"
       cy="105"
       cx="105" />
    <rect
       id="rect6"
       style="fill:#ffffff;stroke-width:0.211416"
       ry="7.8224101"
       rx="7.8224101"
       height="16.270613"
       width="105.70824"
       y="158.27696"
       x="52.145878" />
    <path
       d="m 118.31924,80.26427 c -5.074,10.782241 -13.53066,19.450318 -25.36998,23.67865 l 10.14799,26.42706 c 1.90275,4.86258 3.59408,9.93657 2.11417,14.58774 -1.47992,4.65116 -8.245247,6.13107 -13.107826,1.05708 -9.302326,-9.93658 -40.591966,-72.515857 -42.917548,-77.16702 -2.325581,-4.651163 -4.862579,-8.45666 -4.862579,-13.107822 0.211417,-6.976745 10.993658,-14.164905 16.27907,-17.758986 5.285412,-3.59408 15.64482,-8.456659 24.735729,-8.668076 9.090909,-0.211416 12.896406,1.902749 18.181814,5.285413 8.03383,5.285412 13.74208,13.530655 15.85624,23.044397 2.11417,9.513742 1.47992,16.913319 -1.05708,22.198731 M 94.429175,68.424947 C 92.526427,61.871036 88.509514,55.528541 83.224101,51.300211 82.167019,50.454545 80.89852,49.397463 79.418604,48.97463 c -9.725158,-3.171247 -5.496828,13.107822 -4.016913,17.336152 1.479916,4.22833 5.496829,13.107822 9.936575,17.547569 1.057083,1.057082 2.114165,1.902748 3.382664,2.114165 1.268499,0.211416 3.805497,-1.057083 4.862579,-2.748415 1.057083,-1.691332 1.268499,-2.959831 1.268499,-4.651162 A 27.061311,27.061311 0 0 0 94.429175,68.424947 Z"
       style="fill:#ffffff;stroke-width:0.211416"
       id="path10"
       inkscape:connector-curvature="0" />
    <g
       transform="matrix(0.21141649,0,0,0.21141649,5,4.7885835)"
       id="g16">
      <path
         d="m 625,664 c -2,9 -7,17 -15,22 -8,5 -27,5 -38,-4 -11,-9 -13,-24 -10,-36 3,-12 13,-25 27,-29 29,-9 42,23 36,47 z"
         style="fill:#ffffff"
         id="path12"
         inkscape:connector-curvature="0" />
      <path
         d="m 607,573 c -18,-7 -12,-103 5,-220 5,-32 13,-48 22,-56 9,-8 36,-12 52,-9 a 90,90 0 0 1 49,24 c 12,11 13,23 9,38 -4,15 -18,47 -29,70 l -28,53 c -54,96 -65,106 -80,100 z"
         style="fill:#ffffff"
         id="path14"
         inkscape:connector-curvature="0" />
    </g>
  </g>
</svg>
